<?xml version="1.0" encoding="UTF-8" standalone="no"?>
<!-- Created with Inkscape (http://www.inkscape.org/) -->

<svg
   xmlns:dc="http://purl.org/dc/elements/1.1/"
   xmlns:cc="http://creativecommons.org/ns#"
   xmlns:rdf="http://www.w3.org/1999/02/22-rdf-syntax-ns#"
   xmlns:svg="http://www.w3.org/2000/svg"
   xmlns="http://www.w3.org/2000/svg"
   xmlns:sodipodi="http://sodipodi.sourceforge.net/DTD/sodipodi-0.dtd"
   xmlns:inkscape="http://www.inkscape.org/namespaces/inkscape"
   width="744.09448819"
   height="1052.3622047"
   id="svg3868"
   version="1.1"
   inkscape:version="0.48.4 r9939"
   sodipodi:docname="New document 6">
  <defs
     id="defs3870" />
  <sodipodi:namedview
     id="base"
     pagecolor="#ffffff"
     bordercolor="#666666"
     borderopacity="1.0"
     inkscape:pageopacity="0.0"
     inkscape:pageshadow="2"
     inkscape:zoom="0.98994949"
     inkscape:cx="439.28356"
     inkscape:cy="566.28262"
     inkscape:document-units="px"
     inkscape:current-layer="layer1"
     showgrid="false"
     inkscape:window-width="463"
     inkscape:window-height="423"
     inkscape:window-x="75"
     inkscape:window-y="75"
     inkscape:window-maximized="0" />
  <metadata
     id="metadata3873">
    <rdf:RDF>
      <cc:Work
         rdf:about="">
        <dc:format>image/svg+xml</dc:format>
        <dc:type
           rdf:resource="http://purl.org/dc/dcmitype/StillImage" />
        <dc:title></dc:title>
      </cc:Work>
    </rdf:RDF>
  </metadata>
  <g
     inkscape:label="Layer 1"
     inkscape:groupmode="layer"
     id="layer1">
    <g
       id="g3838"
       transform="matrix(0.0392648,0,0,0.04526253,455.55716,409.87013)"
       style="fill:#00112b"
       inkscape:export-filename="C:\Users\clovis\projetos\facom-template\img\ufms-logo.png"
       inkscape:export-xdpi="90"
       inkscape:export-ydpi="90">
      <path
         style="fill:#00112b"
         d="m 430.48648,741.57313 c -154.4619,-3.25603 -280.2821,-33.14198 -303.0437,-71.98168 -4.1708,-7.11708 -4.2976,-30.51765 -0.2031,-37.50437 14.8025,-25.25855 82.4776,-46.79449 183.383,-58.35713 12.0251,-1.37795 22.4263,-2.70913 23.1138,-2.95819 0.9956,-0.36069 1.25,-53.4459 1.25,-260.87724 0,-236.550486 0.145,-260.480036 1.5818,-261.031376 2.0526,-0.78768 14.7838,-0.78768 16.8364,0 1.4375,0.5516 1.5818,27.60676 1.5818,296.499996 0,295.89301 0,295.89301 2.4349,295.89301 1.3392,0 3.5892,-0.43886 5,-0.97525 2.5651,-0.97525 2.5651,-0.97525 2.5651,-295.89301 0,-268.003936 0.1444,-294.973156 1.5818,-295.524746 2.5003,-0.95945 15.76,-0.67637 17.4182,0.37185 1.3278,0.83938 1.5,34.93199 1.5,297.009236 l 0,296.06102 3,-0.64286 c 1.65,-0.35358 3.7875,-1.05546 4.75,-1.55974 1.6606,-0.87005 1.75,-15.97367 1.75,-295.77469 0,-267.949286 0.1444,-294.913226 1.5818,-295.464816 2.0515,-0.78724 13.7849,-0.78724 15.8364,0 2.1339,0.81885 2.464,591.052806 0.3318,593.325246 -1.5704,1.67368 3.2591,0.92646 8.6968,-1.34558 l 3.5532,-1.48461 0,-294.94403 c 0,-268.027896 0.1444,-294.999426 1.5818,-295.551026 2.3048,-0.88444 15.7013,-0.71406 17.1699,0.21837 0.9985,0.63402 1.2008,60.727946 1,297.163476 l -0.2517,296.36875 -17,6.27063 c -9.35,3.44884 -22.625,8.28802 -29.5,10.75372 -6.875,2.4657 -17.9,6.49686 -24.5,8.95813 -6.6,2.46127 -30.225,11.08588 -52.5,19.16579 -22.275,8.07992 -40.8401,15.00907 -41.2557,15.39812 -1.1604,1.08621 31.3142,5.14802 64.2557,8.03689 66.4013,5.82318 161.0968,6.01796 233,0.47924 21.0803,-1.62382 54.2467,-5.08708 59.8337,-6.24788 3.1886,-0.66251 -1.8886,-3.15076 -64.9373,-31.82458 l -68.3964,-31.10587 -0.2516,-316.60145 c -0.2515,-316.6014384 -0.2515,-316.6014384 2.25,-317.2292904 1.3759,-0.345318 3.6266,-0.345494 5.0016,-3.91e-4 2.5,0.62746 2.5,0.62746 2.5,315.4859614 0,251.41505 0.253,315.06847 1.2556,315.90055 0.6906,0.57313 2.9767,1.04265 4.4861,1.42149 2.7444,0.68881 2.2583,0.99817 2.2583,-320.09119 0,-321.08935138 0,-321.08935138 2.4278,-321.69869738 1.3353,-0.33514 3.3603,-0.313389 4.5,0.04834 2.0722,0.657677 2.0722,0.657677 2.0722,319.46783738 0,253.87621 -0.01,322.09672 0.9848,322.85112 1.4128,0.40645 8.9224,0.20394 10.6312,0.20394 0.51,10e-6 0.884,-125.24803 0.884,-296.03646 0,-262.055436 0.1722,-296.145316 1.5,-296.984696 1.6612,-1.05008 13.9268,-1.32789 16.4182,-0.37185 1.4375,0.55159 1.5818,27.52081 1.5818,295.524746 0,294.91776 0,294.91776 2.5651,295.89301 1.4108,0.53639 3.8858,0.97525 5.5,0.97525 l 2.9349,0 0,-295.89301 c 0,-268.893236 0.1443,-295.948396 1.5818,-296.499996 0.87,-0.33385 4.6582,-0.60699 8.4182,-0.60699 3.76,0 7.5482,0.27314 8.4182,0.60699 1.4368,0.55134 1.5818,24.47292 1.5818,260.940976 0,143.1837 0.3658,260.56009 0.813,260.83643 0.4471,0.27634 7.5346,1.22113 15.75,2.09955 107.2691,11.46957 180.6119,34.92876 192.3236,61.51605 2.7176,6.16955 2.5045,28.53505 -0.3241,34 -6.4584,12.47791 -22.3896,23.73102 -48.3242,34.13399 -67.4733,27.06517 -190.2822,41.97514 -322.7383,39.18299 z m 250.0832,-42.45793 c 3.2543,-0.62752 6.2227,-1.41502 6.5965,-1.75 0.3739,-0.33498 -16.0511,-5.96794 -36.5,-12.5177 -20.4488,-6.54975 -51.239,-16.52579 -68.4225,-22.16896 -29.6002,-9.72087 -38.4072,-12.34892 -37.2504,-11.11572 0.6672,0.71128 127.7147,48.61655 129.0764,48.67031 0.3208,0.0127 3.2458,-0.49041 6.5,-1.11793 z m -410.2419,-10.73379 c 15.4873,-4.88111 48.6337,-15.27964 73.6587,-23.10785 25.025,-7.82821 46.175,-14.65606 47,-15.17301 2.0033,-1.25524 7.8078,-2.86289 -76,21.04933 -40.425,11.53415 -75.6375,21.50499 -78.25,22.15744 -7.0526,1.76132 -5.8607,3.22611 3.0913,3.799 1.2877,0.0824 15.0127,-3.8438 30.5,-8.72491 z m 458.1587,-0.4599 c 2.75,-0.71283 4.775,-1.70343 4.5,-2.20134 -0.5824,-1.05457 -159.7681,-36.65007 -161.9966,-36.22406 -0.8231,0.15736 11.1019,3.58564 26.5,7.61841 15.3982,4.03277 48.9216,12.87485 74.4966,19.64907 50.1481,13.28306 49.1,13.07608 56.5,11.15792 z m -490.6519,-9.59253 c 20.1585,-4.90995 49.2519,-11.93789 64.6519,-15.61765 15.4,-3.67976 28.45,-7.13811 29,-7.68522 0.6642,-0.6607 0.3284,-0.80162 -1,-0.41963 -1.1,0.31631 -12.35,2.82256 -25,5.56943 -12.65,2.74688 -42.4689,9.28865 -66.2641,14.53728 -23.7953,5.24863 -43.9328,9.54296 -44.75,9.54296 -2.0666,0 -1.8661,1.75399 0.2641,2.31067 4.049,1.05812 8.1516,0.27395 43.0981,-8.23784 z m -30.9722,-9.14096 c 21.2433,-3.88748 46.7241,-8.56947 56.6241,-10.40444 9.9,-1.83497 25.0873,-4.61682 33.7495,-6.18187 8.6623,-1.56506 15.7498,-3.21881 15.75,-3.67502 3e-4,-0.4562 -1.237,-0.57674 -2.7495,-0.26786 -1.5125,0.30887 -36.275,5.09347 -77.25,10.63245 -40.975,5.53898 -75.4,10.43062 -76.5,10.87031 -1.739,0.69511 -1.3475,1.13889 3,3.40044 6.536,3.40005 3.2226,3.70596 47.3759,-4.37401 z m 566.0299,2.23784 c 4.4608,-2.10538 5.0727,-2.68279 3.5,-3.30291 -2.6095,-1.02896 -152.5431,-19.06281 -153.1814,-18.42449 -0.8619,0.86191 1.2115,1.27695 35.7756,7.16125 18.425,3.13672 49.475,8.50088 69,11.92034 19.525,3.41947 36.4,5.98772 37.5,5.70722 1.1,-0.28049 4.4326,-1.65813 7.4058,-3.06141 z m -537.4058,-22.71683 c 53.35,-4.71957 97.6378,-8.79195 98.4172,-9.04974 1.0634,-0.35169 1.1317,-0.7542 0.2737,-1.61223 -0.8356,-0.83566 -26.9618,-1.26667 -97.0445,-1.60097 l -95.9009,-0.45744 -4.5118,4.15887 c -6.4504,5.94579 -7.5432,9.06275 -4.7575,13.57011 1.4055,2.2741 2.9618,3.54458 4.3554,3.55547 1.1926,0.009 45.8184,-3.84451 99.1684,-8.56407 z m 103.4167,4.90644 c 1.0035,-0.86538 -3.5663,-0.22744 -4.9167,0.68637 -1.0955,0.74131 -0.6909,0.83408 1.5,0.34401 1.65,-0.36908 3.1875,-0.83275 3.4167,-1.03038 z m 458.3797,-1.45454 c 2.3346,-3.73131 -4.2505,-12.87545 -13.8445,-19.22443 -3.9912,-2.64127 -3.9912,-2.64127 -90.4716,-1.13378 -97.7709,1.70429 -99.4803,1.798 -99.4803,5.45343 0,3.06937 -13.0599,1.78733 102,10.01291 102.8059,7.34954 100.333,7.23071 101.7964,4.89187 z m -176.2964,-2.90478 c -1.9388,-1.25292 -3,-1.25292 -3,0 0,0.55 1.0125,0.99311 2.25,0.98469 1.8194,-0.0124 1.963,-0.20082 0.75,-0.98469 z m -223.5576,-0.90674 c 0.3082,-0.49871 -0.3403,-0.67122 -1.441,-0.38337 -2.335,0.61061 -2.6302,1.29011 -0.5604,1.29011 0.7925,0 1.6931,-0.40803 2.0014,-0.90674 z m -131.4424,-22.09326 c -1.9745,-1.27601 -7,-1.27601 -7,0 0,0.55 1.9125,0.99311 4.25,0.98469 3.1125,-0.0112 3.8485,-0.27478 2.75,-0.98469 z m -13.55,-0.8523 c -0.5225,-0.46877 -12.875,-1.61789 -27.45,-2.55361 -14.575,-0.93573 -32.8,-2.11841 -40.5,-2.6282 -13.7299,-0.90899 -18.5,-0.61228 -18.5,1.15074 0,1.1983 -3.3358,0.93001 35.5,2.85523 41.8336,2.07384 52.2181,2.3135 50.95,1.17584 z m 471.05,-6.1477 c -0.7873,-1.27389 -6.5288,-1.27389 -8.5,0 -1.0727,0.69322 0.012,0.97374 3.809,0.98469 3.2882,0.009 5.0738,-0.36534 4.691,-0.98469 z m 19.7171,-0.65384 c 5.7465,-0.38054 9.4766,-1.03278 9.1284,-1.59617 -0.6991,-1.1311 -22.0893,0.0373 -24.3455,1.32988 -1.8778,1.07574 1.9757,1.14317 15.2171,0.26629 z m -483.5635,-3.48019 c -1.3232,-0.76916 -2.159,-0.76054 -2.95,0.0304 -0.8048,0.80483 -0.3049,1.09539 1.8464,1.07321 2.5861,-0.0267 2.7222,-0.16279 1.1036,-1.10361 z m 75.2918,-15.01745 c -0.1107,-12.31681 -0.402,-15.0865 -1.6362,-15.5601 -2.5889,-0.99347 -72.3608,8.42979 -73.9136,9.98265 -0.5557,0.55567 73.9926,21.42209 74.8945,20.96331 0.4345,-0.22105 0.7294,-7.14469 0.6553,-15.38586 z m -82.4454,14.1115 c -2.285,-1.0335 -42.5277,-6.96002 -47.2606,-6.96002 -1.7167,0 -3.3552,0.37831 -3.641,0.8407 -0.4776,0.7729 43.0343,6.85184 49.9016,6.97162 2.5802,0.045 2.7201,-0.0743 1,-0.8523 z m 388.5,-23.93093 c 0,-1.18002 -44.0399,-6.61149 -46.3671,-5.71847 -1.4229,0.54601 -2.4905,24.4927 -1.1861,26.60333 0.5508,0.89113 47.5532,-19.75184 47.5532,-20.88486 z m 8,14.47114 c 16.225,-3.73224 29.8856,-7.12972 30.3569,-7.54997 0.4713,-0.42024 -1.7787,-1.31342 -5,-1.98485 -5.8569,-1.22076 -5.8569,-1.22076 -29.3569,6.51629 -12.925,4.25538 -24.625,8.39148 -26,9.19133 -1.375,0.79985 -1.825,1.26501 -1,1.03368 0.825,-0.23132 14.775,-3.47424 31,-7.20648 z m 42.4899,4.48346 c -0.3454,-0.55897 -1.047,-0.75742 -1.559,-0.44098 -1.387,0.85723 -1.1284,1.45729 0.6281,1.45729 0.8575,0 1.2764,-0.45734 0.9309,-1.01631 z m 12.8186,-1.00989 c 12.9208,-1.84373 14.0949,-2.10643 12.8509,-2.87527 -1.2837,-0.7934 -21.6815,2.09024 -22.8169,3.22563 -0.9354,0.93542 1.5733,0.84723 9.966,-0.35036 z M 450.98648,340.86314 c 0,-273.908516 0.1443,-301.448366 1.5818,-301.999996 2.028,-0.77822 5.8084,-0.77822 7.8364,0 1.4376,0.55164 1.5818,28.09148 1.5818,301.999996 l 0,301.39301 -5.5,0 -5.5,0 z m 17,-5 c 0,-278.467856 0.1442,-306.448326 1.5818,-306.999996 2.034,-0.78051 6.8025,-0.78051 8.8364,0 1.4376,0.55167 1.5818,28.53214 1.5818,306.999996 l 0,306.39301 -6,0 -6,0 z m 17,-5 c 0,-283.027206 0.1441,-311.448306 1.5818,-311.999996 2.034,-0.78051 6.8025,-0.78051 8.8364,0 1.4377,0.55169 1.5818,28.97279 1.5818,311.999996 l 0,311.39301 -6,0 -6,0 z"
         id="path3836"
         inkscape:connector-curvature="0"
         sodipodi:nodetypes="sssscsccssssssscssssssscsscscsssscsssscscssssssssccsccssscscssscscsssscssscssscsssssccssssssssssssssscsssssssssssssccscsscscsscsssssssscsccscsssscssssccsccsccsccccssccssscsssscsssssscscsscsccssscscccssssscccssscscccs" />
    </g>
    <text
       transform="scale(0.99925616,1.0007444)"
       sodipodi:linespacing="125%"
       id="text3072"
       y="438.59668"
       x="491.36197"
       style="font-size:30.37523842px;font-style:normal;font-weight:normal;line-height:125%;letter-spacing:0px;word-spacing:0px;fill:#0b1728;fill-opacity:1;stroke:none;font-family:Sans"
       xml:space="preserve"
       inkscape:export-filename="C:\Users\clovis\projetos\facom-template\img\ufms-logo.png"
       inkscape:export-xdpi="90"
       inkscape:export-ydpi="90"><tspan
         style="font-style:normal;font-variant:normal;font-weight:normal;font-stretch:normal;fill:#0b1728;fill-opacity:1;font-family:Futura XBlk BT;-inkscape-font-specification:Futura XBlk BT"
         y="438.59668"
         x="491.36197"
         id="tspan3074"
         sodipodi:role="line">UFMS</tspan></text>
  </g>
</svg>
